<svg width="24" height="24" viewBox="0 0 24 24" fill="none" xmlns="http://www.w3.org/2000/svg">
<path d="M6.37471 7.648C6.63993 7.648 6.89428 7.75336 7.08182 7.94089C7.26935 8.12843 7.37471 8.38278 7.37471 8.648V21.3747C7.37471 21.6399 7.26935 21.8942 7.08182 22.0818C6.89428 22.2693 6.63993 22.3747 6.37471 22.3747H2.62671C2.36149 22.3747 2.10714 22.2693 1.9196 22.0818C1.73207 21.8942 1.62671 21.6399 1.62671 21.3747V8.648C1.62671 8.38278 1.73207 8.12843 1.9196 7.94089C2.10714 7.75336 2.36149 7.648 2.62671 7.648H6.37338H6.37471ZM12.1334 3.91467C12.3267 1.32267 16.12 0.867999 17.3454 3.30133C18.116 4.832 17.6894 6.28 16.532 7.56133L16.464 7.632H21.3774C21.619 7.63201 21.8525 7.71952 22.0346 7.87836C22.2167 8.03719 22.3352 8.2566 22.368 8.496L22.3774 8.632V16.5C22.3773 16.7193 22.3051 16.9324 22.172 17.1067L18.4494 21.9813C18.3561 22.1036 18.2358 22.2027 18.098 22.2709C17.9602 22.3391 17.8085 22.3746 17.6547 22.3747H10.5C10.2348 22.3747 9.98047 22.2693 9.79294 22.0818C9.6054 21.8942 9.50004 21.6399 9.50004 21.3747L9.50404 8.55067C9.56671 7.62667 10.1374 6.58133 11.4854 5.77867L11.4 5.83067L11.48 5.75067C11.5267 5.7 11.5814 5.636 11.6387 5.55867L11.7267 5.432C11.9774 5.052 12.1254 4.61733 12.1254 4.12533L12.1334 3.91467Z" fill="#3366FF"/>
</svg>
