<svg width="24" height="24" viewBox="0 0 24 24" fill="none" xmlns="http://www.w3.org/2000/svg">
<path d="M17.008 19.15C17.037 19.656 17.548 20.078 17.928 20.342L19.428 21.384C19.5914 21.4975 19.703 21.6713 19.7382 21.8671C19.7735 22.0629 19.7295 22.2646 19.616 22.428C19.5598 22.5089 19.4882 22.5779 19.4053 22.6312C19.3224 22.6844 19.2299 22.7208 19.1329 22.7382C18.9371 22.7735 18.7354 22.7295 18.572 22.616L14.175 19.561C13.465 19.686 12.737 19.75 12 19.75C6.088 19.75 1.25 15.638 1.25 10.5C1.25 5.362 6.088 1.25 12 1.25C17.913 1.25 22.75 5.362 22.75 10.5C22.75 13.773 20.909 16.889 17.869 18.248C17.509 18.408 17.006 18.644 17.007 19.106L17.008 19.15Z" fill="#3366FF"/>
</svg>
