<svg width="24" height="24" viewBox="0 0 24 24" fill="none" xmlns="http://www.w3.org/2000/svg">
<path d="M17.21 2.22998C17.2791 2.15827 17.3619 2.10105 17.4534 2.06166C17.5449 2.02228 17.6433 2.00151 17.7429 2.00058C17.8425 1.99965 17.9413 2.01857 18.0335 2.05624C18.1257 2.09391 18.2095 2.14957 18.28 2.21998L21.78 5.71998C21.9189 5.85873 21.9979 6.04641 21.9999 6.24273C22.002 6.43905 21.927 6.62835 21.791 6.76998L9.791 19.27C9.72271 19.341 9.6411 19.3979 9.55082 19.4374C9.46055 19.4769 9.36337 19.4983 9.26485 19.5002C9.16633 19.5022 9.06838 19.4847 8.97661 19.4488C8.88484 19.4129 8.80104 19.3593 8.73 19.291C8.65895 19.2227 8.60206 19.1411 8.56255 19.0508C8.52305 18.9605 8.50171 18.8633 8.49976 18.7648C8.49781 18.6663 8.51528 18.5684 8.55119 18.4766C8.58709 18.3848 8.64071 18.301 8.709 18.23L16.771 9.83198L14.32 7.38098L4.5 17.553V20H7.25C7.44891 20 7.63968 20.079 7.78033 20.2196C7.92098 20.3603 8 20.5511 8 20.75C8 20.9489 7.92098 21.1397 7.78033 21.2803C7.63968 21.421 7.44891 21.5 7.25 21.5H3.75C3.55109 21.5 3.36032 21.421 3.21967 21.2803C3.07902 21.1397 3 20.9489 3 20.75V17.25C3.00012 17.056 3.07539 16.8696 3.21 16.73L17.21 2.22998ZM17.76 3.81998L15.363 6.30198L17.81 8.74898L20.2 6.26098L17.76 3.81998Z" fill="black"/>
</svg>
