<svg width="18" height="18" viewBox="0 0 24 24" fill="none"
  xmlns="http://www.w3.org/2000/svg">
  <path d="M14.174 19.561C13.464 19.686 12.736 19.75 12 19.75C6.088 19.75 1.25 15.638 1.25 10.5C1.25 5.362 6.088 1.25 12 1.25C17.913 1.25 22.75 5.362 22.75 10.5C22.75 13.773 20.909 16.889 17.868 18.247C17.6863 18.328 17.4799 18.3336 17.2942 18.2624C17.1084 18.1912 16.9585 18.0492 16.8775 17.8675C16.7965 17.6858 16.7909 17.4794 16.8621 17.2937C16.9333 17.1079 17.0753 16.958 17.257 16.877C19.733 15.772 21.25 13.205 21.25 10.5C21.25 6.249 17.134 2.75 12 2.75C6.867 2.75 2.75 6.25 2.75 10.5C2.75 14.75 6.867 18.25 12 18.25C12.747 18.25 13.482 18.176 14.194 18.03C14.2935 18.0099 14.396 18.0101 14.4953 18.0307C14.5947 18.0514 14.6888 18.0919 14.772 18.15L19.428 21.384C19.5914 21.4975 19.703 21.6713 19.7382 21.8671C19.7735 22.0629 19.7295 22.2646 19.616 22.428C19.5025 22.5914 19.3287 22.703 19.1329 22.7382C18.9371 22.7735 18.7354 22.7295 18.572 22.616L14.174 19.561Z" fill="#666"/>
</svg>
