<svg width="24" height="24" viewBox="0 0 24 24" fill="none" xmlns="http://www.w3.org/2000/svg">
<path d="M12.563 2.49998C12.563 0.0759826 15.764 -0.543018 17.084 1.52598C17.53 2.22598 17.704 3.02498 17.644 3.88398C17.574 4.89198 17.193 5.93098 16.605 6.96498C16.55 7.06198 16.495 7.15698 16.438 7.24998H22C22.1989 7.24998 22.3897 7.329 22.5303 7.46965C22.671 7.6103 22.75 7.80107 22.75 7.99998V15C22.7497 15.1163 22.7223 15.231 22.67 15.335L19.67 21.335C19.6078 21.4595 19.5122 21.5643 19.3939 21.6376C19.2756 21.7109 19.1392 21.7498 19 21.75H12C11.8011 21.75 11.6103 21.671 11.4697 21.5303C11.329 21.3897 11.25 21.1989 11.25 21C11.25 20.8011 11.329 20.6103 11.4697 20.4697C11.6103 20.329 11.8011 20.25 12 20.25H18.536L21.25 14.823V8.74998H15C14.8573 8.74987 14.7176 8.70904 14.5973 8.6323C14.477 8.55555 14.381 8.44608 14.3208 8.31672C14.2605 8.18737 14.2384 8.04351 14.257 7.90202C14.2757 7.76054 14.3343 7.62732 14.426 7.51798C14.75 7.10977 15.0425 6.67753 15.301 6.22498C15.787 5.36798 16.096 4.52798 16.148 3.77998C16.187 3.22498 16.082 2.74498 15.82 2.33298C15.256 1.44998 14.062 1.68098 14.062 2.49998C14.062 3.37498 13.76 4.16598 13.264 4.85698C12.972 5.26598 12.676 5.55698 12.384 5.77998C10.712 6.78598 9.66 7.67698 9.1 8.42598L9.167 8.34398C9.13119 8.41267 9.08497 8.47541 9.03 8.52998L9.014 8.54398C8.804 8.84198 8.75 8.99698 8.75 9.01098C8.75 9.2099 8.67098 9.40066 8.53033 9.54131C8.38968 9.68197 8.19891 9.76098 8 9.76098C7.80109 9.76098 7.61032 9.68197 7.46967 9.54131C7.32902 9.40066 7.25 9.2099 7.25 9.01098C7.25 8.93198 7.26 8.84598 7.279 8.75098L2.75 8.74998V20.25H7.25V12.125C7.25 11.9261 7.32902 11.7353 7.46967 11.5947C7.61032 11.454 7.80109 11.375 8 11.375C8.19891 11.375 8.38968 11.454 8.53033 11.5947C8.67098 11.7353 8.75 11.9261 8.75 12.125V21C8.75 21.1989 8.67098 21.3897 8.53033 21.5303C8.38968 21.671 8.19891 21.75 8 21.75H2C1.80109 21.75 1.61032 21.671 1.46967 21.5303C1.32902 21.3897 1.25 21.1989 1.25 21V7.99998C1.25 7.80107 1.32902 7.6103 1.46967 7.46965C1.61032 7.329 1.80109 7.24998 2 7.24998H8.12C8.83 6.40598 9.958 5.48998 11.534 4.54798C11.647 4.45898 11.844 4.26398 12.045 3.98398C12.372 3.52798 12.563 3.02898 12.563 2.49998Z" fill="black"/>
</svg>
