<svg width="110" height="17" viewBox="0 0 110 17" fill="none" xmlns="http://www.w3.org/2000/svg">
<g clip-path="url(#clip0_8_92)">
<path d="M51.176 12.832C51.176 13.504 51.0107 14.0907 50.68 14.592C50.3493 15.0933 49.8693 15.4827 49.24 15.76C48.6213 16.0267 47.864 16.16 46.968 16.16C46.5733 16.16 46.184 16.1333 45.8 16.08C45.4267 16.0267 45.064 15.952 44.712 15.856C44.3707 15.7493 44.0453 15.6213 43.736 15.472V13.216C44.28 13.4507 44.84 13.6693 45.416 13.872C46.0027 14.064 46.584 14.16 47.16 14.16C47.5547 14.16 47.8693 14.1067 48.104 14C48.3493 13.8933 48.5253 13.7493 48.632 13.568C48.7493 13.3867 48.808 13.1787 48.808 12.944C48.808 12.656 48.7067 12.4107 48.504 12.208C48.312 12.0053 48.0507 11.8187 47.72 11.648C47.3893 11.4667 47.0107 11.2747 46.584 11.072C46.3173 10.944 46.0293 10.7947 45.72 10.624C45.4107 10.4427 45.112 10.224 44.824 9.968C44.5467 9.70133 44.3173 9.38133 44.136 9.008C43.9547 8.63467 43.864 8.18667 43.864 7.664C43.864 6.98133 44.0187 6.4 44.328 5.92C44.648 5.42933 45.096 5.056 45.672 4.8C46.2587 4.544 46.9467 4.416 47.736 4.416C48.3333 4.416 48.8987 4.48533 49.432 4.624C49.976 4.76267 50.5413 4.96 51.128 5.216L50.344 7.104C49.8213 6.89067 49.352 6.72533 48.936 6.608C48.52 6.49067 48.0933 6.432 47.656 6.432C47.3573 6.432 47.1013 6.48 46.888 6.576C46.6747 6.672 46.5093 6.80533 46.392 6.976C46.2853 7.14667 46.232 7.34933 46.232 7.584C46.232 7.85067 46.312 8.08 46.472 8.272C46.632 8.45333 46.872 8.62933 47.192 8.8C47.512 8.97067 47.912 9.17333 48.392 9.408C48.9787 9.68533 49.4747 9.97333 49.88 10.272C50.296 10.5707 50.616 10.9227 50.84 11.328C51.064 11.7333 51.176 12.2347 51.176 12.832ZM63.6205 10.272C63.6205 11.1573 63.5085 11.9627 63.2845 12.688C63.0712 13.4027 62.7405 14.0213 62.2925 14.544C61.8552 15.0667 61.2898 15.4667 60.5965 15.744C59.9138 16.0213 59.1085 16.16 58.1805 16.16C57.2525 16.16 56.4418 16.0213 55.7485 15.744C55.0658 15.456 54.5005 15.056 54.0525 14.544C53.6152 14.0213 53.2845 13.3973 53.0605 12.672C52.8472 11.9467 52.7405 11.1413 52.7405 10.256C52.7405 9.072 52.9325 8.04267 53.3165 7.168C53.7112 6.29333 54.3085 5.616 55.1085 5.136C55.9192 4.64533 56.9485 4.4 58.1965 4.4C59.4338 4.4 60.4525 4.64533 61.2525 5.136C62.0525 5.616 62.6445 6.29867 63.0285 7.184C63.4232 8.05867 63.6205 9.088 63.6205 10.272ZM55.2845 10.272C55.2845 11.072 55.3858 11.76 55.5885 12.336C55.7912 12.912 56.1058 13.3547 56.5325 13.664C56.9592 13.9733 57.5085 14.128 58.1805 14.128C58.8738 14.128 59.4285 13.9733 59.8445 13.664C60.2712 13.3547 60.5805 12.912 60.7725 12.336C60.9752 11.76 61.0765 11.072 61.0765 10.272C61.0765 9.06667 60.8525 8.12267 60.4045 7.44C59.9565 6.75733 59.2205 6.416 58.1965 6.416C57.5138 6.416 56.9592 6.57067 56.5325 6.88C56.1058 7.18933 55.7912 7.632 55.5885 8.208C55.3858 8.784 55.2845 9.472 55.2845 10.272ZM75.1709 16H72.4189L69.4269 11.184L68.4029 11.92V16H65.9869V4.576H68.4029V9.808C68.5629 9.584 68.7229 9.36 68.8829 9.136C69.0429 8.912 69.2029 8.688 69.3629 8.464L72.4509 4.576H75.1389L71.1549 9.632L75.1709 16ZM86.0839 10.176C86.0839 11.456 85.8385 12.528 85.3479 13.392C84.8572 14.256 84.1425 14.9067 83.2039 15.344C82.2759 15.7813 81.1559 16 79.8439 16H76.6119V4.576H80.1959C81.3905 4.576 82.4252 4.78933 83.2999 5.216C84.1852 5.64267 84.8679 6.272 85.3479 7.104C85.8385 7.92533 86.0839 8.94933 86.0839 10.176ZM83.5719 10.24C83.5719 9.39733 83.4492 8.704 83.2039 8.16C82.9585 7.616 82.5905 7.216 82.0999 6.96C81.6199 6.69333 81.0279 6.56 80.3239 6.56H79.0279V14H80.0679C81.2519 14 82.1319 13.6853 82.7079 13.056C83.2839 12.4267 83.5719 11.488 83.5719 10.24ZM95.1351 16L94.3031 13.28H90.1431L89.3111 16H86.7031L90.7351 4.528H93.6951L97.7431 16H95.1351ZM92.8951 8.592C92.8418 8.41067 92.7725 8.18133 92.6871 7.904C92.6018 7.62667 92.5165 7.344 92.4311 7.056C92.3458 6.768 92.2765 6.51733 92.2231 6.304C92.1698 6.51733 92.0951 6.784 91.9991 7.104C91.9138 7.41333 91.8285 7.712 91.7431 8C91.6685 8.27733 91.6098 8.47467 91.5671 8.592L90.7511 11.248H93.7271L92.8951 8.592ZM108.374 16H105.622L102.63 11.184L101.606 11.92V16H99.19V4.576H101.606V9.808C101.766 9.584 101.926 9.36 102.086 9.136C102.246 8.912 102.406 8.688 102.566 8.464L105.654 4.576H108.342L104.358 9.632L108.374 16Z" fill="black"/>
<path d="M16.7121 4.34094H9.39087V14.5305H16.7121V4.34094Z" fill="#3A68F8"/>
<path d="M27.8105 4.34094H20.4893V14.5305H27.8105V4.34094Z" fill="#0149DA"/>
<path d="M13.0644 4.341C11.6933 2.83336 9.72719 1.87158 7.52822 1.87158C3.36312 1.89758 0 5.27678 0 9.4358C0 13.5948 3.36312 17 7.52822 17C9.72719 17 11.6933 16.0642 13.0644 14.5306C11.8227 13.1789 11.0983 11.3853 11.0983 9.4358C11.0983 7.48626 11.8227 5.69268 13.0644 4.341Z" fill="#24DFA5"/>
<path d="M29.6991 1.89758C27.5001 1.89758 25.534 2.83336 24.1628 4.367C25.4046 5.71868 26.129 7.51226 26.129 9.4618C26.129 11.4113 25.3787 13.2309 24.1628 14.5566C25.534 16.0642 27.5001 17.026 29.6991 17.026C33.8642 17.026 37.2273 13.6468 37.2273 9.4618C37.2273 5.27679 33.8642 1.89758 29.6991 1.89758Z" fill="#2C5BF0"/>
<path d="M22.1966 9.43581C22.1966 9.40981 22.1966 9.40981 22.1966 9.38382C22.2225 7.43428 22.9469 5.6667 24.1628 4.34101C22.7917 2.83336 20.8255 1.89758 18.6266 1.89758C16.4276 1.89758 14.4615 2.83336 13.0903 4.367C14.3321 5.71868 15.0565 7.51226 15.0565 9.4618C15.0565 11.4113 14.3062 13.2309 13.0903 14.5566C14.4615 16.0642 16.4276 17.026 18.6266 17.026C20.8255 17.026 22.7917 16.0902 24.1628 14.5566C22.9469 13.2309 22.1966 11.4633 22.1966 9.51379C22.1966 9.4878 22.1966 9.4618 22.1966 9.43581Z" fill="#438AFF"/>
</g>
<defs>
<clipPath id="clip0_8_92">
<rect width="110" height="17" fill="white"/>
</clipPath>
</defs>
</svg>
