<svg width="146" height="16" viewBox="0 0 146 16" fill="none" xmlns="http://www.w3.org/2000/svg">
<path d="M10.22 11.04C10.22 11.88 10.0133 12.6133 9.6 13.24C9.18667 13.8667 8.58667 14.3533 7.8 14.7C7.02667 15.0333 6.08 15.2 4.96 15.2C4.46667 15.2 3.98 15.1667 3.5 15.1C3.03333 15.0333 2.58 14.94 2.14 14.82C1.71333 14.6867 1.30667 14.5267 0.92 14.34V11.52C1.6 11.8133 2.3 12.0867 3.02 12.34C3.75333 12.58 4.48 12.7 5.2 12.7C5.69333 12.7 6.08667 12.6333 6.38 12.5C6.68667 12.3667 6.90667 12.1867 7.04 11.96C7.18667 11.7333 7.26 11.4733 7.26 11.18C7.26 10.82 7.13333 10.5133 6.88 10.26C6.64 10.0067 6.31333 9.77333 5.9 9.56C5.48667 9.33333 5.01333 9.09333 4.48 8.84C4.14667 8.68 3.78667 8.49333 3.4 8.28C3.01333 8.05333 2.64 7.78 2.28 7.46C1.93333 7.12667 1.64667 6.72667 1.42 6.26C1.19333 5.79333 1.08 5.23333 1.08 4.58C1.08 3.72667 1.27333 3 1.66 2.4C2.06 1.78667 2.62 1.32 3.34 0.999999C4.07333 0.679999 4.93333 0.519999 5.92 0.519999C6.66667 0.519999 7.37333 0.606666 8.04 0.779999C8.72 0.953333 9.42667 1.2 10.16 1.52L9.18 3.88C8.52667 3.61333 7.94 3.40667 7.42 3.26C6.9 3.11333 6.36667 3.04 5.82 3.04C5.44667 3.04 5.12667 3.1 4.86 3.22C4.59333 3.34 4.38667 3.50667 4.24 3.72C4.10667 3.93333 4.04 4.18667 4.04 4.48C4.04 4.81333 4.14 5.1 4.34 5.34C4.54 5.56667 4.84 5.78667 5.24 6C5.64 6.21333 6.14 6.46667 6.74 6.76C7.47333 7.10667 8.09333 7.46667 8.6 7.84C9.12 8.21333 9.52 8.65333 9.8 9.16C10.08 9.66667 10.22 10.2933 10.22 11.04ZM25.7756 7.84C25.7756 8.94667 25.6356 9.95333 25.3556 10.86C25.089 11.7533 24.6756 12.5267 24.1156 13.18C23.569 13.8333 22.8623 14.3333 21.9956 14.68C21.1423 15.0267 20.1356 15.2 18.9756 15.2C17.8156 15.2 16.8023 15.0267 15.9356 14.68C15.0823 14.32 14.3756 13.82 13.8156 13.18C13.269 12.5267 12.8556 11.7467 12.5756 10.84C12.309 9.93333 12.1756 8.92667 12.1756 7.82C12.1756 6.34 12.4156 5.05333 12.8956 3.96C13.389 2.86667 14.1356 2.02 15.1356 1.42C16.149 0.806666 17.4356 0.5 18.9956 0.5C20.5423 0.5 21.8156 0.806666 22.8156 1.42C23.8156 2.02 24.5556 2.87333 25.0356 3.98C25.529 5.07333 25.7756 6.36 25.7756 7.84ZM15.3556 7.84C15.3556 8.84 15.4823 9.7 15.7356 10.42C15.989 11.14 16.3823 11.6933 16.9156 12.08C17.449 12.4667 18.1356 12.66 18.9756 12.66C19.8423 12.66 20.5356 12.4667 21.0556 12.08C21.589 11.6933 21.9756 11.14 22.2156 10.42C22.469 9.7 22.5956 8.84 22.5956 7.84C22.5956 6.33333 22.3156 5.15333 21.7556 4.3C21.1956 3.44667 20.2756 3.02 18.9956 3.02C18.1423 3.02 17.449 3.21333 16.9156 3.6C16.3823 3.98667 15.989 4.54 15.7356 5.26C15.4823 5.98 15.3556 6.84 15.3556 7.84ZM40.2136 15H36.7736L33.0336 8.98L31.7536 9.9V15H28.7336V0.719999H31.7536V7.26C31.9536 6.98 32.1536 6.7 32.3536 6.42C32.5536 6.14 32.7536 5.86 32.9536 5.58L36.8136 0.719999H40.1736L35.1936 7.04L40.2136 15ZM53.8548 7.72C53.8548 9.32 53.5482 10.66 52.9348 11.74C52.3215 12.82 51.4282 13.6333 50.2548 14.18C49.0948 14.7267 47.6948 15 46.0548 15H42.0148V0.719999H46.4948C47.9882 0.719999 49.2815 0.986666 50.3748 1.52C51.4815 2.05333 52.3348 2.84 52.9348 3.88C53.5482 4.90667 53.8548 6.18667 53.8548 7.72ZM50.7148 7.8C50.7148 6.74667 50.5615 5.88 50.2548 5.2C49.9482 4.52 49.4882 4.02 48.8748 3.7C48.2748 3.36667 47.5348 3.2 46.6548 3.2H45.0348V12.5H46.3348C47.8148 12.5 48.9148 12.1067 49.6348 11.32C50.3548 10.5333 50.7148 9.36 50.7148 7.8ZM65.1689 15L64.1289 11.6H58.9289L57.8889 15H54.6289L59.6689 0.66H63.3689L68.4289 15H65.1689ZM62.3689 5.74C62.3022 5.51333 62.2156 5.22667 62.1089 4.88C62.0022 4.53333 61.8956 4.18 61.7889 3.82C61.6822 3.46 61.5956 3.14667 61.5289 2.88C61.4622 3.14667 61.3689 3.48 61.2489 3.88C61.1422 4.26667 61.0356 4.64 60.9289 5C60.8356 5.34667 60.7622 5.59333 60.7089 5.74L59.6889 9.06H63.4089L62.3689 5.74ZM81.7175 15H78.2775L74.5375 8.98L73.2575 9.9V15H70.2375V0.719999H73.2575V7.26C73.4575 6.98 73.6575 6.7 73.8575 6.42C74.0575 6.14 74.2575 5.86 74.4575 5.58L78.3175 0.719999H81.6775L76.6975 7.04L81.7175 15ZM98.3941 9.52C98.3941 10.4267 98.2674 11.2333 98.0141 11.94C97.7741 12.6467 97.4207 13.2467 96.9541 13.74C96.5007 14.22 95.9474 14.5867 95.2941 14.84C94.6407 15.08 93.9007 15.2 93.0741 15.2C92.3141 15.2 91.6074 15.08 90.9541 14.84C90.3141 14.5867 89.7607 14.22 89.2941 13.74C88.8274 13.2467 88.4607 12.6467 88.1941 11.94C87.9407 11.2333 87.8141 10.4267 87.8141 9.52C87.8141 8.30667 88.0274 7.28667 88.4541 6.46C88.8807 5.62 89.4941 4.98 90.2941 4.54C91.0941 4.1 92.0407 3.88 93.1341 3.88C94.1607 3.88 95.0674 4.1 95.8541 4.54C96.6407 4.98 97.2607 5.62 97.7141 6.46C98.1674 7.28667 98.3941 8.30667 98.3941 9.52ZM90.8541 9.52C90.8541 10.24 90.9274 10.8467 91.0741 11.34C91.2341 11.82 91.4807 12.1867 91.8141 12.44C92.1474 12.68 92.5807 12.8 93.1141 12.8C93.6474 12.8 94.0741 12.68 94.3941 12.44C94.7274 12.1867 94.9674 11.82 95.1141 11.34C95.2741 10.8467 95.3541 10.24 95.3541 9.52C95.3541 8.8 95.2741 8.2 95.1141 7.72C94.9674 7.24 94.7274 6.88 94.3941 6.64C94.0607 6.4 93.6274 6.28 93.0941 6.28C92.3074 6.28 91.7341 6.55333 91.3741 7.1C91.0274 7.63333 90.8541 8.44 90.8541 9.52ZM107.057 3.88C108.23 3.88 109.17 4.2 109.877 4.84C110.584 5.46667 110.937 6.48 110.937 7.88V15H107.957V8.62C107.957 7.83333 107.817 7.24667 107.537 6.86C107.257 6.46 106.81 6.26 106.197 6.26C105.29 6.26 104.67 6.57333 104.337 7.2C104.004 7.81333 103.837 8.7 103.837 9.86V15H100.857V4.08H103.137L103.537 5.48H103.697C103.937 5.10667 104.23 4.80667 104.577 4.58C104.924 4.34 105.31 4.16667 105.737 4.06C106.164 3.94 106.604 3.88 107.057 3.88ZM118.501 3.88C119.515 3.88 120.381 4.07333 121.101 4.46C121.835 4.84667 122.401 5.40667 122.801 6.14C123.201 6.87333 123.401 7.77333 123.401 8.84V10.28H116.361C116.388 11.12 116.635 11.78 117.101 12.26C117.581 12.74 118.241 12.98 119.081 12.98C119.788 12.98 120.428 12.9133 121.001 12.78C121.575 12.6333 122.168 12.4133 122.781 12.12V14.42C122.248 14.6867 121.681 14.88 121.081 15C120.495 15.1333 119.781 15.2 118.941 15.2C117.848 15.2 116.881 15 116.041 14.6C115.201 14.1867 114.541 13.5667 114.061 12.74C113.581 11.9133 113.341 10.8733 113.341 9.62C113.341 8.34 113.555 7.28 113.981 6.44C114.421 5.58667 115.028 4.94667 115.801 4.52C116.575 4.09333 117.475 3.88 118.501 3.88ZM118.521 6C117.948 6 117.468 6.18667 117.081 6.56C116.708 6.93333 116.488 7.51333 116.421 8.3H120.601C120.601 7.86 120.521 7.46667 120.361 7.12C120.215 6.77333 119.988 6.5 119.681 6.3C119.375 6.1 118.988 6 118.521 6ZM131.398 15H124.898V13.28L126.638 12.48V3.24L124.898 2.44V0.719999H131.398V2.44L129.658 3.24V12.48L131.398 13.28V15ZM145.671 7.72C145.671 9.32 145.365 10.66 144.751 11.74C144.138 12.82 143.245 13.6333 142.071 14.18C140.911 14.7267 139.511 15 137.871 15H133.831V0.719999H138.311C139.805 0.719999 141.098 0.986666 142.191 1.52C143.298 2.05333 144.151 2.84 144.751 3.88C145.365 4.90667 145.671 6.18667 145.671 7.72ZM142.531 7.8C142.531 6.74667 142.378 5.88 142.071 5.2C141.765 4.52 141.305 4.02 140.691 3.7C140.091 3.36667 139.351 3.2 138.471 3.2H136.851V12.5H138.151C139.631 12.5 140.731 12.1067 141.451 11.32C142.171 10.5333 142.531 9.36 142.531 7.8Z" fill="black"/>
</svg>
